<svg xmlns="http://www.w3.org/2000/svg" width="20.283" height="20.283" viewBox="0 0 20.283 20.283"><defs><style>.a{opacity:0.38;}.b{fill:#00a19f;}</style></defs><g class="a" transform="translate(-3.5 -3.5)"><path class="b" d="M22.756,13.523a2.023,2.023,0,1,0-4.046,0v1.516h4.046Z" transform="translate(-7.092 -3.73)"/><path class="b" d="M22.609,20.13H14.39a.464.464,0,0,0-.47.47v4.969a1.169,1.169,0,0,0,1.164,1.164h6.832a1.169,1.169,0,0,0,1.164-1.164V20.594a.464.464,0,0,0-.47-.464ZM18.5,25.243a1.815,1.815,0,1,1,1.815-1.815A1.815,1.815,0,0,1,18.5,25.243Z" transform="translate(-4.858 -7.754)"/><circle class="b" cx="0.747" cy="0.747" r="0.747" transform="translate(12.894 14.928)"/><path class="b" d="M13.641,3.5A10.141,10.141,0,1,0,23.783,13.641,10.141,10.141,0,0,0,13.641,3.5Zm5.647,14.315a2.231,2.231,0,0,1-2.231,2.231H10.225a2.231,2.231,0,0,1-2.231-2.231V12.841A1.537,1.537,0,0,1,9.531,11.3h1.019V9.793a3.09,3.09,0,1,1,6.181,0v1.516h1.019a1.537,1.537,0,0,1,1.537,1.532Z"/></g></svg>