<svg xmlns="http://www.w3.org/2000/svg" width="20.283" height="20.283" viewBox="0 0 20.283 20.283"><defs><style>.a{opacity:0.38;}.b{fill:#00a19f;}</style></defs><g class="a" transform="translate(0 -0.001)"><path class="b" d="M10.142,0A10.141,10.141,0,1,0,20.283,10.142,10.142,10.142,0,0,0,10.142,0Zm0,3.032A3.354,3.354,0,1,1,6.788,6.388,3.355,3.355,0,0,1,10.142,3.033Zm0,14.6a7.443,7.443,0,0,1-4.847-1.787,1.429,1.429,0,0,1-.5-1.087,3.383,3.383,0,0,1,3.4-3.382h3.9a3.378,3.378,0,0,1,3.394,3.382,1.426,1.426,0,0,1-.5,1.086A7.44,7.44,0,0,1,10.14,17.632Z" transform="translate(0 0)"/></g></svg>