<svg xmlns="http://www.w3.org/2000/svg" width="47" height="41.535" viewBox="0 0 47 41.535">
    <defs>
        <style>
            .a { fill: #39a900; fill-rule: evenodd; }
            .b { fill: white; stroke: #39a900; stroke-width: 2; stroke-linecap: round; stroke-linejoin: round; }
        </style>
    </defs>
    <g transform="translate(-1.25 -2.5)">
        <path class="a" d="M19.25,4.14v8.744a1.64,1.64,0,1,0,3.279,0V4.14a1.64,1.64,0,1,0-3.279,0Z" transform="translate(21.349)"/>
        <path class="a" d="M18.89,7.779h8.744a1.64,1.64,0,0,0,0-3.279H18.89a1.64,1.64,0,0,0,0,3.279Z" transform="translate(18.977 2.372)"/>
        <path class="a" d="M46.868,11.735c-.085.007-.171.009-.258.009h-.547v.547a3.826,3.826,0,1,1-7.651,0v-.547h-.547a3.826,3.826,0,0,1-3.109-6.055l-.286-.575A3.826,3.826,0,0,0,31.05,3H18.45a3.826,3.826,0,0,0-3.421,2.114l-2.07,4.143a.551.551,0,0,1-.49.3H7.262A6.011,6.011,0,0,0,1.25,15.57V37.43a6.008,6.008,0,0,0,6.012,6.012H42.238A6.008,6.008,0,0,0,48.25,37.43V15.57a5.982,5.982,0,0,0-1.382-3.834ZM24.75,15.023A10.384,10.384,0,1,0,35.134,25.407,10.388,10.388,0,0,0,24.75,15.023Zm0,3.279a7.1,7.1,0,1,1-7.1,7.1A7.107,7.107,0,0,1,24.75,18.3Z" transform="translate(0 0.593)"/>
    </g>
</svg>
